name C:\Users\tom_v\MusculoskeletalSpecialization\ResultsSprinting\Case_1\motion.mot
datacolumns 32
datarows 10
range 0.35562440 0.39829933
endheader 
time	pelvis_tilt	pelvis_list	pelvis_rotation	pelvis_tx	pelvis_ty	pelvis_tz	hip_flexion_r	hip_adduction_r	hip_rotation_r	knee_angle_r	ankle_angle_r	subtalar_angle_r	mtp_angle_r	hip_flexion_l	hip_adduction_l	hip_rotation_l	knee_angle_l	ankle_angle_l	subtalar_angle_l	mtp_angle_l	lumbar_extension	lumbar_bending	lumbar_rotation	arm_flex_r	arm_add_r	arm_rot_r	elbow_flex_r	arm_flex_l	arm_add_l	arm_rot_l	elbow_flex_l	
          0.35562440	         -9.01072087	        -13.46165408	         24.59004248	          2.89106800	          0.93808793	         -0.02878900	         54.29065466	         -4.32265768	         -9.17783626	        -57.17336097	         16.29892769	          0.93295573	          6.17991441	          5.32855878	        -17.71593638	          9.45271779	        -40.28435637	        -18.61115049	         -9.70316103	         -4.90462009	         -0.81554633	         11.76435299	        -27.95764879	        -69.99996903	        -42.47149884	        -12.48574680	          0.06000667	         49.99745345	          4.97185966	         10.12301058	        111.56166111	
          0.36036606	         -7.84674207	        -13.03091228	         25.60782028	          2.92865367	          0.94126173	         -0.03002182	         53.47367945	         -5.11406247	         -9.53538542	        -55.76838617	         17.22082522	          0.57425023	          6.49356253	          4.14110703	        -18.26478402	          9.63924323	        -41.12096909	        -20.21221858	         -5.75364635	         -1.74066685	         -2.16892960	         12.04091117	        -29.21771722	        -69.82121368	        -42.59994318	         -7.28103718	          0.31636615	         49.99945278	          4.81045460	         12.14880458	        108.31169847	
          0.36510772	         -6.64619782	        -12.53021774	         26.60415823	          2.96617025	          0.94460849	         -0.03111494	         52.38661690	         -5.81342893	         -9.80696523	        -54.09276446	         18.16287010	          0.38727537	          6.31144827	          2.95806430	        -18.72918992	          9.76198023	        -41.98869208	        -20.40011618	         -3.45570439	          0.42663286	         -3.59914311	         12.29187326	        -30.31747086	        -69.40542204	        -42.38590732	          1.43585641	          0.90141702	         49.99875267	          4.60453378	         13.28280774	        103.76186860	
          0.36984938	         -5.42475624	        -11.95659411	         27.57391221	          3.00360853	          0.94815492	         -0.03204107	         51.03806535	         -6.40929333	         -9.96238692	        -52.13212259	         19.17161943	          0.36797570	          4.72647714	          1.81029860	        -19.08862244	          9.80699346	        -42.84198787	        -20.52760015	         -3.70166547	          2.41566845	         -5.09987162	         12.51548501	        -31.28591863	        -68.72675460	        -41.89252583	         11.16984567	          2.09807790	         49.97730759	          4.39926380	         13.37745114	         98.19031648	
          0.37459104	         -4.23821292	        -11.34658291	         28.51726237	          3.04094272	          0.95178512	         -0.03274215	         49.51643260	         -6.89522656	         -9.99086675	        -49.92341197	         20.07621935	          0.42634185	          2.23923560	          0.80487288	        -19.37575486	          9.84556974	        -43.71324131	        -20.64897043	         -5.15066667	          3.74785917	         -6.60232520	         12.73342498	        -32.17788535	        -67.97924107	        -41.20383534	         18.03580291	          4.59341866	         49.91672450	          4.12635617	         12.47313299	         92.12236029	
          0.37933270	         -3.22266505	        -10.70737643	         29.38233516	          3.07817287	          0.95523896	         -0.03308666	         48.01515279	         -7.29780047	         -9.80837068	        -47.57186433	         21.02856596	          0.57907231	         -2.08320805	          0.08804405	        -19.54978511	          9.92580194	        -44.65590582	        -20.48729416	         -6.07319064	          4.45127684	         -7.97197754	         12.87894338	        -33.03809325	        -67.59328010	        -40.40180749	         18.92554813	          9.23059398	         49.86408983	          3.49846094	         11.04388267	         86.05454194	
          0.38407436	         -2.38690924	        -10.00832175	         30.10968496	          3.11534241	          0.95847398	         -0.03293115	         46.59044611	         -7.61377082	         -9.35630909	        -45.17631284	         21.15453736	          0.51287002	         -2.20122535	         -0.37871586	        -19.58899999	          9.99411825	        -45.65420574	        -20.14663223	         -5.75695909	          5.11623470	         -9.23333974	         12.90644626	        -33.86869515	        -67.90982030	        -39.23765800	         13.59584361	         16.22561615	         49.89735051	          2.05624268	          9.97166025	         80.43980603	
          0.38881602	         -1.65590376	         -9.22120559	         30.69242042	          3.15250944	          0.96158405	         -0.03221431	         45.15203205	         -7.84168468	         -8.67585487	        -42.76714653	         21.38144541	          0.55789192	         -1.56680785	         -0.71055847	        -19.51235302	          9.97928169	        -46.66550580	        -19.83126236	         -4.56562694	          5.69641701	        -10.48034227	         12.82380490	        -34.70755825	        -68.73422896	        -37.27610841	          4.82506661	         25.02552303	         49.98929724	         -0.67645340	         10.24595179	         75.78755659	
          0.39355767	         -1.05276589	         -8.45007086	         31.10164386	          3.18974417	          0.96445816	         -0.03086821	         43.76602167	         -7.91837821	         -7.85706953	        -40.34644150	         21.94850902	          0.71769554	         -1.36944131	         -0.84651552	        -19.41195023	          9.78949100	        -47.70057024	        -19.55455580	         -3.20904071	          6.04180418	        -11.63101862	         12.70748680	        -35.57538556	        -69.31134204	        -34.46259508	         -3.78206036	         34.62193683	         49.94577938	         -4.96038879	         12.50788990	         72.72516044	
          0.39829933	         -0.63240826	         -7.81523240	         31.26296815	          3.22717660	          0.96694040	         -0.02887152	         42.55313524	         -7.76068250	         -6.96858101	        -37.92164963	         22.58637810	          0.75505911	         -1.44603880	         -0.71980811	        -19.36076959	          9.33250496	        -48.76677032	        -19.17902346	         -2.11998555	          6.15471173	        -12.57691865	         12.61129697	        -36.42504408	        -68.85125832	        -31.23088279	        -10.00374943	         43.72786341	         49.34546146	        -10.43698577	         15.95175221	         71.93643455	
